HIERARCHY
ROOT Hips
{
	OFFSET -3.958830 18.904000 13.208200
	CHANNELS 6 Xposition Yposition Zposition Zrotation Yrotation Xrotation 
	JOINT LHipJoint
	{
		OFFSET 0.000000 0.000000 0.000000
		CHANNELS 3 Zrotation Yrotation Xrotation
		JOINT LeftUpLeg
		{
			OFFSET 1.800000 -1.400000 0.085000
			CHANNELS 3 Zrotation Yrotation Xrotation
			JOINT LeftLeg
			{
				OFFSET 2.215000 -6.000000 0.000000
				CHANNELS 3 Zrotation Yrotation Xrotation
				JOINT LeftFoot
				{
					OFFSET 2.500000 -6.900000 0.000000
					CHANNELS 3 Zrotation Yrotation Xrotation
					JOINT LeftToeBase
					{
						OFFSET 0.200000 -0.500000 1.950000
						CHANNELS 3 Zrotation Yrotation Xrotation
						End Site
						{
							OFFSET 0.000000 0.000000 0.000000
						}
					}
				}
			}
		}
	}
	JOINT RHipJoint
	{
		OFFSET 0.000000 0.000000 0.000000
		CHANNELS 3 Zrotation Yrotation Xrotation
		JOINT RightUpLeg
		{
			OFFSET -1.800000 -1.400000 0.085000
			CHANNELS 3 Zrotation Yrotation Xrotation
			JOINT RightLeg
			{
				OFFSET -2.215000 -6.000000 0.000000
				CHANNELS 3 Zrotation Yrotation Xrotation
				JOINT RightFoot
				{
					OFFSET -2.500000 -6.900000 0.000000
					CHANNELS 3 Zrotation Yrotation Xrotation
					JOINT RightToeBase
					{
						OFFSET -0.200000 -0.500000 1.950000
						CHANNELS 3 Zrotation Yrotation Xrotation
						End Site
						{
							OFFSET 0.000000 0.000000 0.000000
						}
					}
				}
			}
		}
	}
	JOINT LowerBack
	{
		OFFSET 0.000000 0.000000 0.000000
		CHANNELS 3 Zrotation Yrotation Xrotation
		JOINT Spine
		{
			OFFSET -0.087000 1.940000 -0.288900
			CHANNELS 3 Zrotation Yrotation Xrotation
			JOINT Spine1
			{
				OFFSET 0.000000 1.950000 0.060000
				CHANNELS 3 Zrotation Yrotation Xrotation
				JOINT Neck
				{
					OFFSET 0.000000 0.000000 0.000000
					CHANNELS 3 Zrotation Yrotation Xrotation
					JOINT Neck1
					{
						OFFSET 0.000000 1.600000 0.340000
						CHANNELS 3 Zrotation Yrotation Xrotation
						JOINT Head
						{
							OFFSET 0.000000 1.667000 -0.240000
							CHANNELS 3 Zrotation Yrotation Xrotation
							End Site
							{
								OFFSET 0.000000 0.000000 0.000000
							}
						}
					}
				}
				JOINT LeftShoulder
				{
					OFFSET 0.000000 0.000000 0.000000
					CHANNELS 3 Zrotation Yrotation Xrotation
					JOINT LeftArm
					{
						OFFSET 2.700000 1.550000 -0.730000
						CHANNELS 3 Zrotation Yrotation Xrotation
						JOINT LeftForeArm
						{
							OFFSET 5.450000 0.000000 0.000000
							CHANNELS 3 Zrotation Yrotation Xrotation
							JOINT LeftHand
							{
								OFFSET 3.450000 0.000000 0.000000
								CHANNELS 3 Zrotation Yrotation Xrotation
								JOINT LeftHandIndex1
								{
									OFFSET 0.750000 0.000000 0.000000
									CHANNELS 3 Zrotation Yrotation Xrotation
									End Site
									{
										OFFSET 0.000000 0.000000 0.000000
									}
								}
							}
						}
					}
				}
				JOINT RightShoulder
				{
					OFFSET 0.000000 0.000000 0.000000
					CHANNELS 3 Zrotation Yrotation Xrotation
					JOINT RightArm
					{
						OFFSET -2.700000 1.550000 -0.730000
						CHANNELS 3 Zrotation Yrotation Xrotation
						JOINT RightForeArm
						{
							OFFSET -5.450000 0.000000 0.000000
							CHANNELS 3 Zrotation Yrotation Xrotation
							JOINT RightHand
							{
								OFFSET -3.450000 0.000000 0.000000
								CHANNELS 3 Zrotation Yrotation Xrotation
								JOINT RightHandIndex1
								{
									OFFSET -0.750000 0.000000 0.000000
									CHANNELS 3 Zrotation Yrotation Xrotation
									End Site
									{
										OFFSET 0.000000 0.000000 0.000000
									}
								}
							}
						}
					}
				}
			}
		}
	}
}
MOTION
Frames: 9
Frame Time: 0.016667
-2.587110 17.800870 -0.054400 -5.518422 -11.778724 3.336824 -14.618496 11.573365 3.995628 -9.537103 -4.969197 -27.596315 -8.155424 4.207806 11.020204 -0.498614 2.615457 3.754114 0.034710 -0.191170 -0.035900 18.834956 -11.799748 3.137395 0.635241 -2.322144 3.882636 2.099032 -5.716926 11.133908 -0.843858 -4.689833 2.605835 -0.258050 0.580210 0.570910 -5.035566 1.983577 -7.960745 13.750003 5.332043 14.077882 -6.977795 6.750029 8.418968 2.588795 -1.240316 -12.838108 1.060107 2.075307 70.552701 0.558020 -0.067550 5.944050 -10.440642 -4.621752 5.631850 -50.875154 5.867223 -7.341638 -14.339742 -9.825623 -1.187967 -3.830157 2.672822 0.641070 0.124900 0.325010 0.314390 5.394607 10.078088 6.676155 58.174265 17.926082 -3.385485 20.755945 39.332055 3.967565 2.432426 -1.276503 -0.114390 0.243050 0.139030 0.221870 
-2.602330 17.809580 0.015510 -3.853542 -8.783998 2.351460 -14.770313 11.582870 4.041774 -12.436266 -4.911070 -22.782354 -7.130857 3.277325 5.760258 -0.537031 2.361895 3.883994 0.025410 -0.163670 -0.045050 18.727927 -11.582078 3.104771 -0.479883 -2.436130 5.924411 2.466159 -5.848089 9.663688 -0.912175 -4.807920 2.594739 -0.244910 0.586520 0.545240 -4.698412 1.508391 -8.039815 10.601768 4.370641 13.949577 -6.115189 5.525524 9.111137 2.466032 -1.522607 -13.083337 -0.004611 2.297675 69.902328 0.175190 0.051190 2.943630 -11.817187 -5.827173 6.119016 -49.080915 6.467451 -7.985797 -13.882842 -14.178606 -0.947484 -3.784428 2.626761 0.673830 0.113350 0.354570 0.310090 7.383865 11.443746 6.929311 56.361293 17.401627 -4.211275 20.727884 40.284777 4.053249 2.406078 -1.185728 -0.132950 0.320590 0.154430 0.224090 
-2.611770 17.803690 0.102690 -2.721889 -6.860421 2.194441 -14.789253 11.490984 4.126929 -14.595616 -4.828887 -19.605266 -6.081004 2.794064 2.594688 -0.548168 2.367617 3.901613 -0.028010 -0.225740 -0.102110 18.742500 -11.487699 3.111744 -0.986538 -2.424634 6.876020 2.221953 -5.794395 8.163806 -0.939504 -4.849421 2.588456 -0.278590 0.634960 0.561610 -4.719875 1.444309 -8.145892 9.499279 3.334235 13.439708 -7.208656 4.421149 8.899594 2.035653 -2.160923 -13.536558 -1.182828 3.410803 69.550213 1.315870 0.315450 2.215410 -12.039833 -6.561013 6.633349 -48.006963 7.563142 -8.188015 -12.771073 -15.821266 -0.963077 -3.807232 2.601961 0.707570 0.125920 0.349020 0.296580 8.391039 12.503381 7.545786 57.189724 16.796553 -4.909768 19.960597 41.151062 3.771226 2.368383 -1.122139 -0.154390 0.354030 0.222250 0.224790 
-2.636180 17.819630 0.197490 -2.368311 -6.283860 2.090771 -14.769440 11.481633 4.135580 -15.223983 -4.227735 -15.958380 -5.728327 2.461920 -1.037144 -0.546820 2.548946 3.818822 -0.021540 -0.260070 -0.076250 18.791259 -11.431159 3.075497 -0.640794 -2.396047 6.783675 1.252239 -5.631917 8.286783 -0.952579 -4.792273 2.556163 -0.292740 0.611900 0.600160 -4.831877 1.356109 -8.140910 9.657499 2.600303 12.626067 -8.813124 3.880721 9.961514 1.899448 -2.915302 -14.312644 -3.366472 5.140007 70.100094 2.165640 0.775840 1.229110 -13.082375 -8.788061 7.639070 -46.574141 8.468971 -7.867076 -11.510059 -15.457345 -1.164635 -3.808968 2.627138 0.760290 0.102770 0.361020 0.250160 9.677573 15.001957 8.359089 57.138752 16.380608 -6.035535 18.004277 41.292081 2.949132 2.336953 -1.087547 -0.150460 0.326810 0.271550 0.190770 
-2.655300 17.841200 0.291940 -1.985643 -5.710863 2.934170 -14.762547 11.461088 4.108145 -15.273205 -4.149958 -14.964497 -6.092084 2.416582 -2.170548 -0.574535 2.736830 3.730763 -0.085530 -0.398670 -0.126560 18.837651 -11.307339 3.042670 -0.632458 -2.263939 6.643366 1.068304 -5.497391 7.378487 -0.896689 -4.798904 2.510741 -0.334870 0.655580 0.627810 -4.926449 1.156107 -8.048601 9.729245 2.279719 10.505876 -10.045548 3.713396 11.165488 1.537513 -3.509814 -15.172145 -5.724246 7.484657 70.518452 4.242300 0.878750 4.804630 -12.788870 -10.938712 8.693124 -46.697070 8.350202 -7.111541 -10.687105 -13.824002 -1.338438 -3.873781 2.707169 0.761860 0.131420 0.280670 0.204480 10.086755 17.099882 9.196917 57.748814 15.674979 -6.825086 16.343987 40.977335 2.181618 2.309989 -1.111488 -0.186180 0.263970 0.362020 0.159930 
-2.665170 17.843510 0.356310 -1.475228 -5.368744 3.078337 -14.739527 11.380766 4.073184 -15.224599 -4.214746 -14.612392 -6.713162 2.499029 -1.932341 -0.563142 2.792580 3.700657 -0.051340 -0.373750 -0.103800 18.882340 -11.292851 3.039618 -1.267361 -2.205092 7.285956 1.335051 -5.540967 6.608907 -0.938207 -4.897022 2.445823 -0.320730 0.638840 0.658410 -5.033771 1.230271 -7.993931 9.566894 2.223449 9.991897 -11.626985 4.034230 12.454776 1.688434 -3.317885 -15.257979 -5.734642 7.536720 70.077672 4.594210 0.709980 4.291740 -12.188841 -12.184435 8.895008 -44.979696 6.687741 -6.079432 -11.923031 -12.801173 -1.217203 -3.863424 2.773091 0.761800 0.119790 0.293320 0.209070 9.204021 18.019453 9.488797 58.504424 16.304449 -6.528706 16.866439 39.767130 2.080843 2.325426 -1.149400 -0.164230 0.230250 0.349690 0.162350 
-2.704220 17.810790 0.392670 -0.216386 -5.765599 4.018443 -14.840063 11.322656 4.134028 -15.529833 -4.992485 -16.973638 -8.251733 2.778374 -0.059274 -0.481336 2.715561 3.728165 -0.063470 -0.336350 -0.186130 18.783594 -11.237231 3.009860 -2.765834 -1.978615 7.580935 2.007411 -5.590681 5.467113 -0.927272 -5.012135 2.445932 -0.326560 0.680730 0.689460 -4.744251 1.139791 -8.016016 6.339031 3.119020 9.793780 -11.007409 4.956012 12.462998 1.624475 -2.825520 -14.961246 -4.901876 7.119815 67.078955 4.965440 0.659360 5.253650 -10.373294 -12.052893 8.509827 -44.640231 4.211719 -5.226876 -13.375190 -12.062972 -0.980467 -3.902125 2.866288 0.661010 0.171830 0.269370 0.254790 7.681651 17.784412 9.452598 58.733763 16.624663 -5.754185 18.986329 38.739297 2.557039 2.350583 -1.237437 -0.104080 0.179810 0.328060 0.226620 
-2.730430 17.795220 0.422170 -0.324577 -4.967234 4.654837 -14.869217 11.314620 4.102345 -14.804045 -5.241707 -18.280058 -9.059657 3.071476 1.578777 -0.526731 2.786496 3.719472 -0.106130 -0.387570 -0.195950 18.750642 -11.214609 3.081794 -2.369276 -2.103113 7.815543 2.396315 -5.592231 4.472684 -0.915580 -5.044731 2.442023 -0.333940 0.719500 0.682430 -4.652091 1.147170 -8.065091 5.658783 3.443004 10.708580 -11.268099 5.397498 12.156448 2.126817 -1.914717 -14.323525 -2.976121 5.730780 65.368343 3.934280 0.535070 4.560200 -11.052704 -11.957882 7.711491 -41.986757 2.126887 -4.049866 -15.587319 -10.879240 -0.841372 -3.967654 2.819488 0.655470 0.206330 0.236100 0.235240 7.351837 17.021932 9.211395 57.618894 16.193230 -5.421979 21.853265 37.946204 3.347598 2.346336 -1.228344 -0.143620 0.212820 0.360950 0.213570 
-2.748840 17.790870 0.418800 -0.148599 -4.514516 5.391029 -14.925039 11.379893 4.187650 -14.955725 -5.656902 -19.814857 -8.842756 3.180736 3.039304 -0.463038 2.637022 3.769282 -0.064540 -0.257180 -0.232570 18.671279 -11.228923 3.047166 -2.307481 -2.168858 6.722756 2.472695 -5.556835 5.119234 -0.907964 -4.933358 2.512153 -0.297400 0.720320 0.698900 -4.451370 1.018692 -8.158898 4.313527 3.868641 12.671279 -11.329624 5.932995 11.455807 2.376886 -0.686753 -13.889483 -1.102928 4.300768 63.606320 4.226850 -0.036100 2.962610 -13.827636 -13.025297 7.375171 -37.810974 1.049611 -3.766017 -18.094944 -12.434142 -0.374569 -3.925832 2.881003 0.592570 0.220980 0.279210 0.295170 9.518537 17.132156 8.906602 54.260088 14.596459 -5.912821 25.028223 37.581973 4.174267 2.366341 -1.262500 -0.072880 0.213160 0.300980 0.280350 
